<svg id="visual" viewBox="0 0 900 600" width="900" height="600" xmlns="http://www.w3.org/2000/svg" xmlns:xlink="http://www.w3.org/1999/xlink" version="1.1"><g transform="translate(448.815011761518 279.1694560873934)"><path d="M123.3 -189.6C149.7 -175 154 -123.6 179.2 -78.8C204.5 -34 250.7 4.4 256.6 44.4C262.5 84.3 228 126 191.6 163.7C155.3 201.3 117.1 235 76.3 236C35.6 237 -7.7 205.3 -54.1 189.4C-100.5 173.4 -150 173.1 -186.1 150.6C-222.1 128.1 -244.7 83.2 -252.2 35.8C-259.7 -11.6 -252.2 -61.7 -221.2 -89.1C-190.2 -116.6 -135.6 -121.4 -94.8 -129.4C-54.1 -137.5 -27 -148.7 10.7 -165.4C48.5 -182.1 97 -204.2 123.3 -189.6" fill="#0066FF"></path></g></svg>